<?xml version="1.0" encoding="UTF-8"?><svg id="Calque_1" xmlns="http://www.w3.org/2000/svg" viewBox="0 0 1699.7 1608.6"><path d="m1660.44,603.48c66.9-92.39,46.24-221.52-46.15-288.43h0c-92.39-66.9-221.52-46.24-288.43,46.15l-272.92,376.67,1.91.53c4.36,1.2,8.66,2.6,12.9,4.18,2.77,1.03,5.54,2.09,8.32,3.17,7.32,2.86,14.69,5.94,22.09,9.17,47.87,20.87,97.09,49.21,144.8,84.71,41.88,31.16,78.79,65.04,110.03,99.81,8.38,9.33,16.35,18.73,23.89,28.16l.02.03c1.61,2,3.14,4.06,4.61,6.17l5.27,7.53,273.67-377.84Z" fill="#9d9d9c"/><path d="m1225.33,863.29c-56.05-41.71-114.64-71.98-169.34-89.84l-55.16,76.17v291.29c0,113.18-79.95,208.03-186.34,231.08,7.26,7.4,15.23,14.3,23.91,20.58,83.59,60.53,200.43,41.83,260.96-41.76l60.66-83.77,20.01-27.64,176.83-244.2c-32.58-45.77-77.26-91.52-131.54-131.91Z" fill="#b2b2b2"/><path d="m557.85,678.64h413.09v594.92c0,40.78-33.11,73.89-73.89,73.89h-265.31c-40.78,0-73.89-33.11-73.89-73.89v-594.92h0Z" fill="#7f4131"/><path d="m641.1,0h240.05c36.9,0,66.85,29.95,66.85,66.85v601.96h-373.75V66.85c0-36.9,29.95-66.85,66.85-66.85Z" fill="#e62340"/><path d="m354.51,922.66c-112.59-55.6-251.05-17.27-318.1,91.83-67.04,109.1-38.68,249.95,61.79,325.27l256.31-417.11Z" fill="#6fc3c1"/><path d="m405.14,1580.17c-137.86,0-251.37-49.73-266.18-113.67-1.08,4.67-1.66,9.41-1.66,14.21,0,70.63,119.91,127.88,267.83,127.88s267.83-57.25,267.83-127.88c0-4.8-.57-9.55-1.66-14.21-14.81,63.94-128.32,113.67-266.18,113.67Z" fill="#6fc3c1"/><path d="m202.87,1307.29c54.53-26.03,126.36-40.37,202.27-40.37,17.63,0,34.97.78,51.92,2.27,64.88-108.71,36.17-247.81-63.45-322.49l-241.07,392.3c13.82-11.65,30.65-22.31,50.32-31.7Z" fill="#6fc3c1"/><path d="m191.07,1501.55l384.66-175.45c-46.33-18.3-105.77-29.29-170.59-29.29-147.92,0-267.83,57.25-267.83,127.88,0,28.85,20.01,55.46,53.77,76.86Z" fill="#6fc3c1"/><path d="m599.07,1336.48l-387.33,176.67c48.75,24.29,117.37,39.42,193.4,39.42,147.92,0,267.83-57.25,267.83-127.88,0-34.2-28.11-65.26-73.91-88.21Z" fill="#6fc3c1"/></svg>